<svg xmlns="http://www.w3.org/2000/svg" style="width: 401px; height: 1914px;" viewBox="0 0 401 1914" preserveAspectRatio="none meet" width="401px" height="1914px" contentScriptType="application/ecmascript" contentStyleType="text/css" zoomAndPan="magnify" version="1.1"><defs><filter id="f1hd4ranuran38" x="-1" y="-1" width="300%" height="300%"><feGaussianBlur result="blurOut" stdDeviation="2" /><feColorMatrix result="blurOut2" in="blurOut" type="matrix" values="0 0 0 0 0 0 0 0 0 0 0 0 0 0 0 0 0 0 0.4 0" /><feOffset result="blurOut3" in="blurOut2" dx="4" dy="4" /><feBlend in="SourceGraphic" in2="blurOut3" mode="normal" /></filter></defs><g><ellipse filter="url(&quot;#f1hd4ranuran38&quot;)" style="stroke: none; stroke-width: 1;" fill="#000000" cx="327.5" cy="18" rx="10" ry="10" /><rect filter="url(&quot;#f1hd4ranuran38&quot;)" style="stroke: #a80036; stroke-width: 1.5;" fill="#fefece" x="304" y="68" width="47" height="35.0938" rx="12.5" ry="12.5" /><text font-family="sans-serif" font-size="12" fill="#000000" lengthAdjust="spacingAndGlyphs" textLength="27" x="314" y="90.457">0,0,0</text><rect filter="url(&quot;#f1hd4ranuran38&quot;)" style="stroke: #a80036; stroke-width: 1.5;" fill="#fefece" x="249" y="143" width="47" height="35.0938" rx="12.5" ry="12.5" /><text font-family="sans-serif" font-size="12" fill="#000000" lengthAdjust="spacingAndGlyphs" textLength="27" x="259" y="165.457">1,0,0</text><rect filter="url(&quot;#f1hd4ranuran38&quot;)" style="stroke: #a80036; stroke-width: 1.5;" fill="#fefece" x="336" y="1793" width="47" height="35.0938" rx="12.5" ry="12.5" /><text font-family="sans-serif" font-size="12" fill="#000000" lengthAdjust="spacingAndGlyphs" textLength="27" x="346" y="1815.457">0,1,0</text><rect filter="url(&quot;#f1hd4ranuran38&quot;)" style="stroke: #a80036; stroke-width: 1.5;" fill="#fefece" x="194" y="218" width="47" height="35.0938" rx="12.5" ry="12.5" /><text font-family="sans-serif" font-size="12" fill="#000000" lengthAdjust="spacingAndGlyphs" textLength="27" x="204" y="240.457">2,0,0</text><rect filter="url(&quot;#f1hd4ranuran38&quot;)" style="stroke: #a80036; stroke-width: 1.5;" fill="#fefece" x="249" y="368" width="47" height="35.0938" rx="12.5" ry="12.5" /><text font-family="sans-serif" font-size="12" fill="#000000" lengthAdjust="spacingAndGlyphs" textLength="27" x="259" y="390.457">1,0,1</text><rect filter="url(&quot;#f1hd4ranuran38&quot;)" style="stroke: #a80036; stroke-width: 1.5;" fill="#fefece" x="249" y="1718" width="47" height="35.0938" rx="12.5" ry="12.5" /><text font-family="sans-serif" font-size="12" fill="#000000" lengthAdjust="spacingAndGlyphs" textLength="27" x="259" y="1740.457">0,1,1</text><rect filter="url(&quot;#f1hd4ranuran38&quot;)" style="stroke: #a80036; stroke-width: 1.5;" fill="#fefece" x="139" y="293" width="47" height="35.0938" rx="12.5" ry="12.5" /><text font-family="sans-serif" font-size="12" fill="#000000" lengthAdjust="spacingAndGlyphs" textLength="27" x="149" y="315.457">3,0,0</text><rect filter="url(&quot;#f1hd4ranuran38&quot;)" style="stroke: #a80036; stroke-width: 1.5;" fill="#fefece" x="194" y="518" width="47" height="35.0938" rx="12.5" ry="12.5" /><text font-family="sans-serif" font-size="12" fill="#000000" lengthAdjust="spacingAndGlyphs" textLength="27" x="204" y="540.457">2,0,1</text><rect filter="url(&quot;#f1hd4ranuran38&quot;)" style="stroke: #a80036; stroke-width: 1.5;" fill="#fefece" x="179" y="1343" width="47" height="35.0938" rx="12.5" ry="12.5" /><text font-family="sans-serif" font-size="12" fill="#000000" lengthAdjust="spacingAndGlyphs" textLength="27" x="189" y="1365.457">1,0,2</text><rect filter="url(&quot;#f1hd4ranuran38&quot;)" style="stroke: #a80036; stroke-width: 1.5;" fill="#fefece" x="178" y="1643" width="47" height="35.0938" rx="12.5" ry="12.5" /><text font-family="sans-serif" font-size="12" fill="#000000" lengthAdjust="spacingAndGlyphs" textLength="27" x="188" y="1665.457">0,1,2</text><rect filter="url(&quot;#f1hd4ranuran38&quot;)" style="stroke: #a80036; stroke-width: 1.5;" fill="#fefece" x="249" y="1793" width="47" height="35.0938" rx="12.5" ry="12.5" /><text font-family="sans-serif" font-size="12" fill="#000000" lengthAdjust="spacingAndGlyphs" textLength="27" x="259" y="1815.457">0,0,1</text><rect filter="url(&quot;#f1hd4ranuran38&quot;)" style="stroke: #a80036; stroke-width: 1.5;" fill="#fefece" x="72" y="443" width="47" height="35.0938" rx="12.5" ry="12.5" /><text font-family="sans-serif" font-size="12" fill="#000000" lengthAdjust="spacingAndGlyphs" textLength="27" x="82" y="465.457">3,0,1</text><rect filter="url(&quot;#f1hd4ranuran38&quot;)" style="stroke: #a80036; stroke-width: 1.5;" fill="#fefece" x="139" y="368" width="47" height="35.0938" rx="12.5" ry="12.5" /><text font-family="sans-serif" font-size="12" fill="#000000" lengthAdjust="spacingAndGlyphs" textLength="27" x="149" y="390.457">4,0,0</text><rect filter="url(&quot;#f1hd4ranuran38&quot;)" style="stroke: #a80036; stroke-width: 1.5;" fill="#fefece" x="124" y="1268" width="47" height="35.0938" rx="12.5" ry="12.5" /><text font-family="sans-serif" font-size="12" fill="#000000" lengthAdjust="spacingAndGlyphs" textLength="27" x="134" y="1290.457">2,0,2</text><rect filter="url(&quot;#f1hd4ranuran38&quot;)" style="stroke: #a80036; stroke-width: 1.5;" fill="#fefece" x="113" y="1418" width="47" height="35.0938" rx="12.5" ry="12.5" /><text font-family="sans-serif" font-size="12" fill="#000000" lengthAdjust="spacingAndGlyphs" textLength="27" x="123" y="1440.457">1,0,3</text><rect filter="url(&quot;#f1hd4ranuran38&quot;)" style="stroke: #a80036; stroke-width: 1.5;" fill="#fefece" x="178" y="1568" width="47" height="35.0938" rx="12.5" ry="12.5" /><text font-family="sans-serif" font-size="12" fill="#000000" lengthAdjust="spacingAndGlyphs" textLength="27" x="188" y="1590.457">0,0,2</text><rect filter="url(&quot;#f1hd4ranuran38&quot;)" style="stroke: #a80036; stroke-width: 1.5;" fill="#fefece" x="116" y="1718" width="47" height="35.0938" rx="12.5" ry="12.5" /><text font-family="sans-serif" font-size="12" fill="#000000" lengthAdjust="spacingAndGlyphs" textLength="27" x="126" y="1740.457">0,1,3</text><rect filter="url(&quot;#f1hd4ranuran38&quot;)" style="stroke: #a80036; stroke-width: 1.5;" fill="#fefece" x="99" y="1193" width="47" height="35.0938" rx="12.5" ry="12.5" /><text font-family="sans-serif" font-size="12" fill="#000000" lengthAdjust="spacingAndGlyphs" textLength="27" x="109" y="1215.457">3,0,2</text><rect filter="url(&quot;#f1hd4ranuran38&quot;)" style="stroke: #a80036; stroke-width: 1.5;" fill="#fefece" x="139" y="443" width="47" height="35.0938" rx="12.5" ry="12.5" /><text font-family="sans-serif" font-size="12" fill="#000000" lengthAdjust="spacingAndGlyphs" textLength="27" x="149" y="465.457">5,0,0</text><rect filter="url(&quot;#f1hd4ranuran38&quot;)" style="stroke: #a80036; stroke-width: 1.5;" fill="#fefece" x="112" y="1343" width="47" height="35.0938" rx="12.5" ry="12.5" /><text font-family="sans-serif" font-size="12" fill="#000000" lengthAdjust="spacingAndGlyphs" textLength="27" x="122" y="1365.457">2,0,3</text><rect filter="url(&quot;#f1hd4ranuran38&quot;)" style="stroke: #a80036; stroke-width: 1.5;" fill="#fefece" x="113" y="1493" width="47" height="35.0938" rx="12.5" ry="12.5" /><text font-family="sans-serif" font-size="12" fill="#000000" lengthAdjust="spacingAndGlyphs" textLength="27" x="123" y="1515.457">0,0,3</text><rect filter="url(&quot;#f1hd4ranuran38&quot;)" style="stroke: #a80036; stroke-width: 1.5;" fill="#fefece" x="116" y="1793" width="47" height="35.0938" rx="12.5" ry="12.5" /><text font-family="sans-serif" font-size="12" fill="#000000" lengthAdjust="spacingAndGlyphs" textLength="27" x="126" y="1815.457">0,1,4</text><rect filter="url(&quot;#f1hd4ranuran38&quot;)" style="stroke: #a80036; stroke-width: 1.5;" fill="#fefece" x="38" y="1268" width="47" height="35.0938" rx="12.5" ry="12.5" /><text font-family="sans-serif" font-size="12" fill="#000000" lengthAdjust="spacingAndGlyphs" textLength="27" x="48" y="1290.457">3,0,3</text><rect filter="url(&quot;#f1hd4ranuran38&quot;)" style="stroke: #a80036; stroke-width: 1.5;" fill="#fefece" x="127" y="518" width="47" height="35.0938" rx="12.5" ry="12.5" /><text font-family="sans-serif" font-size="12" fill="#000000" lengthAdjust="spacingAndGlyphs" textLength="27" x="137" y="540.457">6,0,0</text><rect filter="url(&quot;#f1hd4ranuran38&quot;)" style="stroke: #a80036; stroke-width: 1.5;" fill="#fefece" x="88" y="1868" width="47" height="35.0938" rx="12.5" ry="12.5" /><text font-family="sans-serif" font-size="12" fill="#000000" lengthAdjust="spacingAndGlyphs" textLength="27" x="98" y="1890.457">0,0,4</text><rect filter="url(&quot;#f1hd4ranuran38&quot;)" style="stroke: #a80036; stroke-width: 1.5;" fill="#fefece" x="33" y="1343" width="47" height="35.0938" rx="12.5" ry="12.5" /><text font-family="sans-serif" font-size="12" fill="#000000" lengthAdjust="spacingAndGlyphs" textLength="27" x="43" y="1365.457">3,0,4</text><rect filter="url(&quot;#f1hd4ranuran38&quot;)" style="stroke: #a80036; stroke-width: 1.5;" fill="#fefece" x="127" y="593" width="47" height="35.0938" rx="12.5" ry="12.5" /><text font-family="sans-serif" font-size="12" fill="#000000" lengthAdjust="spacingAndGlyphs" textLength="27" x="137" y="615.457">7,0,0</text><rect filter="url(&quot;#f1hd4ranuran38&quot;)" style="stroke: #a80036; stroke-width: 1.5;" fill="#fefece" x="18" y="1418" width="47" height="35.0938" rx="12.5" ry="12.5" /><text font-family="sans-serif" font-size="12" fill="#000000" lengthAdjust="spacingAndGlyphs" textLength="27" x="28" y="1440.457">2,0,4</text><rect filter="url(&quot;#f1hd4ranuran38&quot;)" style="stroke: #a80036; stroke-width: 1.5;" fill="#fefece" x="127" y="668" width="47" height="35.0938" rx="12.5" ry="12.5" /><text font-family="sans-serif" font-size="12" fill="#000000" lengthAdjust="spacingAndGlyphs" textLength="27" x="137" y="690.457">8,0,0</text><rect filter="url(&quot;#f1hd4ranuran38&quot;)" style="stroke: #a80036; stroke-width: 1.5;" fill="#fefece" x="10" y="1493" width="47" height="35.0938" rx="12.5" ry="12.5" /><text font-family="sans-serif" font-size="12" fill="#000000" lengthAdjust="spacingAndGlyphs" textLength="27" x="20" y="1515.457">2,0,5</text><rect filter="url(&quot;#f1hd4ranuran38&quot;)" style="stroke: #a80036; stroke-width: 1.5;" fill="#fefece" x="127" y="743" width="47" height="35.0938" rx="12.5" ry="12.5" /><text font-family="sans-serif" font-size="12" fill="#000000" lengthAdjust="spacingAndGlyphs" textLength="27" x="137" y="765.457">8,0,1</text><rect filter="url(&quot;#f1hd4ranuran38&quot;)" style="stroke: #a80036; stroke-width: 1.5;" fill="#fefece" x="6" y="1568" width="47" height="35.0938" rx="12.5" ry="12.5" /><text font-family="sans-serif" font-size="12" fill="#000000" lengthAdjust="spacingAndGlyphs" textLength="27" x="16" y="1590.457">1,0,5</text><rect filter="url(&quot;#f1hd4ranuran38&quot;)" style="stroke: #a80036; stroke-width: 1.5;" fill="#fefece" x="127" y="818" width="47" height="35.0938" rx="12.5" ry="12.5" /><text font-family="sans-serif" font-size="12" fill="#000000" lengthAdjust="spacingAndGlyphs" textLength="27" x="137" y="840.457">7,0,1</text><rect filter="url(&quot;#f1hd4ranuran38&quot;)" style="stroke: #a80036; stroke-width: 1.5;" fill="#fefece" x="6" y="1643" width="47" height="35.0938" rx="12.5" ry="12.5" /><text font-family="sans-serif" font-size="12" fill="#000000" lengthAdjust="spacingAndGlyphs" textLength="27" x="16" y="1665.457">0,0,5</text><rect filter="url(&quot;#f1hd4ranuran38&quot;)" style="stroke: #a80036; stroke-width: 1.5;" fill="#fefece" x="127" y="893" width="47" height="35.0938" rx="12.5" ry="12.5" /><text font-family="sans-serif" font-size="12" fill="#000000" lengthAdjust="spacingAndGlyphs" textLength="27" x="137" y="915.457">7,0,2</text><rect filter="url(&quot;#f1hd4ranuran38&quot;)" style="stroke: #a80036; stroke-width: 1.5;" fill="#fefece" x="127" y="968" width="47" height="35.0938" rx="12.5" ry="12.5" /><text font-family="sans-serif" font-size="12" fill="#000000" lengthAdjust="spacingAndGlyphs" textLength="27" x="137" y="990.457">6,0,2</text><rect filter="url(&quot;#f1hd4ranuran38&quot;)" style="stroke: #a80036; stroke-width: 1.5;" fill="#fefece" x="127" y="1043" width="47" height="35.0938" rx="12.5" ry="12.5" /><text font-family="sans-serif" font-size="12" fill="#000000" lengthAdjust="spacingAndGlyphs" textLength="27" x="137" y="1065.457">5,0,2</text><rect filter="url(&quot;#f1hd4ranuran38&quot;)" style="stroke: #a80036; stroke-width: 1.5;" fill="#fefece" x="127" y="1118" width="47" height="35.0938" rx="12.5" ry="12.5" /><text font-family="sans-serif" font-size="12" fill="#000000" lengthAdjust="spacingAndGlyphs" textLength="27" x="137" y="1140.457">4,0,2</text><!--link start to 0,0,0--><path id="start-0,0,0" style="stroke: #a80036; stroke-width: 1;" fill="none" d="M 327.5 28.11 C 327.5 37.01 327.5 50.9 327.5 62.67" /><polygon style="stroke: #a80036; stroke-width: 1;" fill="#a80036" points="327.5,67.9 331.5,58.9 327.5,62.9 323.5,58.9 327.5,67.9" /><!--link 0,0,0 to 1,0,0--><path id="0,0,0-1,0,0" style="stroke: #a80036; stroke-width: 1;" fill="none" d="M 308.619 103.06 C 299.441 113.54 289.015 127.17 281.518 138.41" /><polygon style="stroke: #a80036; stroke-width: 1;" fill="#a80036" points="278.698,142.75 286.96,137.388 281.425,138.559 280.254,133.025 278.698,142.75" /><!--link 1,0,0 to 0,0,0--><path id="1,0,0-0,0,0" style="stroke: #a80036; stroke-width: 1;" fill="none" d="M 291.545 142.75 C 300.737 132.24 311.154 118.6 318.615 107.39" /><polygon style="stroke: #a80036; stroke-width: 1;" fill="#a80036" points="321.421,103.06 313.173,108.443 318.704,107.258 319.889,112.789 321.421,103.06" /><!--link 0,0,0 to 0,1,0--><path id="0,0,0-0,1,0" style="stroke: #a80036; stroke-width: 1;" fill="none" d="M 331.239 103.14 C 342.637 129.86 369.5 184.39 369.5 234.5 C 369.5 234.5 369.5 234.5 369.5 1661.5 C 369.5 1706.66 360.243 1758.87 357.474 1787.64" /><polygon style="stroke: #a80036; stroke-width: 1;" fill="#a80036" points="357.036,1792.73 361.793,1784.11 357.465,1787.75 353.822,1783.42 357.036,1792.73" /><!--link 0,1,0 to 0,0,0--><path id="0,1,0-0,0,0" style="stroke: #a80036; stroke-width: 1;" fill="none" d="M 369.488 1792.73 C 379.055 1765.4 389.5 1709.47 389.5 1661.5 C 389.5 234.5 389.5 234.5 389.5 234.5 C 389.5 186.93 365.296 135.38 346.738 107.42" /><polygon style="stroke: #a80036; stroke-width: 1;" fill="#a80036" points="343.813,103.14 345.602,112.825 346.64,107.264 352.2,108.302 343.813,103.14" /><!--link 1,0,0 to 2,0,0--><path id="1,0,0-2,0,0" style="stroke: #a80036; stroke-width: 1;" fill="none" d="M 253.619 178.06 C 244.441 188.54 234.015 202.17 226.518 213.41" /><polygon style="stroke: #a80036; stroke-width: 1;" fill="#a80036" points="223.698,217.75 231.96,212.388 226.425,213.559 225.254,208.025 223.698,217.75" /><!--link 2,0,0 to 1,0,0--><path id="2,0,0-1,0,0" style="stroke: #a80036; stroke-width: 1;" fill="none" d="M 236.545 217.75 C 245.737 207.24 256.154 193.6 263.615 182.39" /><polygon style="stroke: #a80036; stroke-width: 1;" fill="#a80036" points="266.421,178.06 258.173,183.443 263.704,182.258 264.889,187.789 266.421,178.06" /><!--link 1,0,0 to 1,0,1--><path id="1,0,0-1,0,1" style="stroke: #a80036; stroke-width: 1;" fill="none" d="M 272.5 178.26 C 272.5 218.07 272.5 318.29 272.5 362.71" /><polygon style="stroke: #a80036; stroke-width: 1;" fill="#a80036" points="272.5,367.85 276.5,358.85 272.5,362.85 268.5,358.85 272.5,367.85" /><!--link 0,1,0 to 0,1,1--><path id="0,1,0-0,1,1" style="stroke: #a80036; stroke-width: 1;" fill="none" d="M 346.193 1792.97 C 333.948 1781.51 315.828 1766.26 300.51 1754.49" /><polygon style="stroke: #a80036; stroke-width: 1;" fill="#a80036" points="296.271,1751.27 301.018,1759.9 300.253,1754.3 305.857,1753.53 296.271,1751.27" /><!--link 0,1,1 to 0,1,0--><path id="0,1,1-0,1,0" style="stroke: #a80036; stroke-width: 1;" fill="none" d="M 285.841 1753.06 C 298.089 1764.52 316.196 1779.76 331.502 1791.52" /><polygon style="stroke: #a80036; stroke-width: 1;" fill="#a80036" points="335.738,1794.73 330.989,1786.11 331.756,1791.71 326.151,1792.48 335.738,1794.73" /><!--link 2,0,0 to 3,0,0--><path id="2,0,0-3,0,0" style="stroke: #a80036; stroke-width: 1;" fill="none" d="M 198.619 253.06 C 189.441 263.54 179.015 277.17 171.518 288.41" /><polygon style="stroke: #a80036; stroke-width: 1;" fill="#a80036" points="168.698,292.75 176.96,287.388 171.425,288.559 170.254,283.025 168.698,292.75" /><!--link 3,0,0 to 2,0,0--><path id="3,0,0-2,0,0" style="stroke: #a80036; stroke-width: 1;" fill="none" d="M 181.545 292.75 C 190.737 282.24 201.154 268.6 208.615 257.39" /><polygon style="stroke: #a80036; stroke-width: 1;" fill="#a80036" points="211.421,253.06 203.173,258.443 208.704,257.258 209.889,262.789 211.421,253.06" /><!--link 2,0,0 to 2,0,1--><path id="2,0,0-2,0,1" style="stroke: #a80036; stroke-width: 1;" fill="none" d="M 217.5 253.38 C 217.5 304.19 217.5 455.73 217.5 512.61" /><polygon style="stroke: #a80036; stroke-width: 1;" fill="#a80036" points="217.5,517.81 221.5,508.81 217.5,512.81 213.5,508.81 217.5,517.81" /><!--link 1,0,1 to 1,0,2--><path id="1,0,1-1,0,2" style="stroke: #a80036; stroke-width: 1;" fill="none" d="M 272.5 403.37 C 272.5 430.84 272.5 486.97 272.5 534.5 C 272.5 534.5 272.5 534.5 272.5 1211.5 C 272.5 1260.87 240.271 1311.39 219.55 1338.76" /><polygon style="stroke: #a80036; stroke-width: 1;" fill="#a80036" points="216.33,1342.95 224.985,1338.25 219.376,1338.98 218.641,1333.38 216.33,1342.95" /><!--link 0,1,1 to 0,1,2--><path id="0,1,1-0,1,2" style="stroke: #a80036; stroke-width: 1;" fill="none" d="M 262.631 1717.75 C 253.445 1706.96 239.864 1692.88 227.726 1681.5" /><polygon style="stroke: #a80036; stroke-width: 1;" fill="#a80036" points="224.012,1678.06 227.901,1687.11 227.682,1681.46 233.335,1681.24 224.012,1678.06" /><!--link 0,1,2 to 0,1,1--><path id="0,1,2-0,1,1" style="stroke: #a80036; stroke-width: 1;" fill="none" d="M 211.21 1678.06 C 220.345 1688.81 233.908 1702.89 246.063 1714.3" /><polygon style="stroke: #a80036; stroke-width: 1;" fill="#a80036" points="249.783,1717.75 245.901,1708.7 246.116,1714.35 240.463,1714.56 249.783,1717.75" /><!--link 0,1,1 to 0,0,1--><path id="0,1,1-0,0,1" style="stroke: #a80036; stroke-width: 1;" fill="none" d="M 266.099 1753.06 C 264.846 1763.26 264.664 1776.45 265.554 1787.51" /><polygon style="stroke: #a80036; stroke-width: 1;" fill="#a80036" points="266.076,1792.75 269.164,1783.4 265.58,1787.77 261.203,1784.19 266.076,1792.75" /><!--link 0,0,1 to 0,1,1--><path id="0,0,1-0,1,1" style="stroke: #a80036; stroke-width: 1;" fill="none" d="M 278.924 1792.75 C 280.163 1782.52 280.332 1769.32 279.43 1758.29" /><polygon style="stroke: #a80036; stroke-width: 1;" fill="#a80036" points="278.901,1753.06 275.829,1762.42 279.405,1758.04 283.788,1761.62 278.901,1753.06" /><!--link 3,0,0 to 3,0,1--><path id="3,0,0-3,0,1" style="stroke: #a80036; stroke-width: 1;" fill="none" d="M 151.183 328.33 C 144.095 339.32 135.089 354.15 128.5 368 C 117.495 391.14 107.942 418.99 101.987 437.84" /><polygon style="stroke: #a80036; stroke-width: 1;" fill="#a80036" points="100.404,442.91 106.898,435.506 101.89,438.136 99.26,433.128 100.404,442.91" /><!--link 3,0,0 to 4,0,0--><path id="3,0,0-4,0,0" style="stroke: #a80036; stroke-width: 1;" fill="none" d="M 156.099 328.06 C 154.846 338.26 154.664 351.45 155.554 362.51" /><polygon style="stroke: #a80036; stroke-width: 1;" fill="#a80036" points="156.076,367.75 159.156,358.395 155.576,362.775 151.196,359.195 156.076,367.75" /><!--link 4,0,0 to 3,0,0--><path id="4,0,0-3,0,0" style="stroke: #a80036; stroke-width: 1;" fill="none" d="M 168.924 367.75 C 170.163 357.52 170.332 344.32 169.43 333.29" /><polygon style="stroke: #a80036; stroke-width: 1;" fill="#a80036" points="168.901,328.06 165.848,337.424 169.415,333.034 173.805,336.601 168.901,328.06" /><!--link 2,0,1 to 2,0,2--><path id="2,0,1-2,0,2" style="stroke: #a80036; stroke-width: 1;" fill="none" d="M 216.371 553.36 C 214.633 580.82 211.5 636.93 211.5 684.5 C 211.5 684.5 211.5 684.5 211.5 1136.5 C 211.5 1185.13 182.033 1235.91 163.088 1263.53" /><polygon style="stroke: #a80036; stroke-width: 1;" fill="#a80036" points="160.144,1267.76 168.569,1262.66 163.001,1263.65 162.003,1258.09 160.144,1267.76" /><!--link 1,0,2 to 1,0,3--><path id="1,0,2-1,0,3" style="stroke: #a80036; stroke-width: 1;" fill="none" d="M 187.524 1378.06 C 177.888 1388.72 165.294 1402.65 155.03 1414.01" /><polygon style="stroke: #a80036; stroke-width: 1;" fill="#a80036" points="151.646,1417.75 160.65,1413.76 155,1414.04 154.717,1408.39 151.646,1417.75" /><!--link 1,0,2 to 0,0,2--><path id="1,0,2-0,0,2" style="stroke: #a80036; stroke-width: 1;" fill="none" d="M 202.425 1378.26 C 202.246 1418.07 201.797 1518.29 201.598 1562.71" /><polygon style="stroke: #a80036; stroke-width: 1;" fill="#a80036" points="201.575,1567.85 205.613,1558.87 201.596,1562.85 197.614,1558.83 201.575,1567.85" /><!--link 0,1,2 to 0,1,3--><path id="0,1,2-0,1,3" style="stroke: #a80036; stroke-width: 1;" fill="none" d="M 181.03 1678.06 C 170.759 1688.63 158.907 1702.41 150.314 1713.71" /><polygon style="stroke: #a80036; stroke-width: 1;" fill="#a80036" points="147.304,1717.75 155.888,1712.92 150.291,1713.74 149.473,1708.14 147.304,1717.75" /><!--link 0,1,3 to 0,1,2--><path id="0,1,3-0,1,2" style="stroke: #a80036; stroke-width: 1;" fill="none" d="M 160.151 1717.75 C 170.441 1707.15 182.283 1693.36 190.838 1682.09" /><polygon style="stroke: #a80036; stroke-width: 1;" fill="#a80036" points="193.832,1678.06 185.251,1682.9 190.848,1682.08 191.669,1687.67 193.832,1678.06" /><!--link 0,1,2 to 0,0,2--><path id="0,1,2-0,0,2" style="stroke: #a80036; stroke-width: 1;" fill="none" d="M 207.924 1642.75 C 209.163 1632.52 209.332 1619.32 208.43 1608.29" /><polygon style="stroke: #a80036; stroke-width: 1;" fill="#a80036" points="207.901,1603.06 204.829,1612.42 208.405,1608.04 212.788,1611.62 207.901,1603.06" /><!--link 0,0,2 to 0,1,2--><path id="0,0,2-0,1,2" style="stroke: #a80036; stroke-width: 1;" fill="none" d="M 195.099 1603.06 C 193.846 1613.26 193.664 1626.45 194.554 1637.51" /><polygon style="stroke: #a80036; stroke-width: 1;" fill="#a80036" points="195.076,1642.75 198.164,1633.4 194.58,1637.77 190.204,1634.19 195.076,1642.75" /><!--link 0,0,1 to 0,0,0--><path id="0,0,1-0,0,0" style="stroke: #a80036; stroke-width: 1;" fill="none" d="M 283.972 1792.86 C 291.046 1781.94 299.822 1767.12 305.5 1753 C 321.103 1714.19 327.5 1703.33 327.5 1661.5 C 327.5 234.5 327.5 234.5 327.5 234.5 C 327.5 189.75 327.5 137.39 327.5 108.49" /><polygon style="stroke: #a80036; stroke-width: 1;" fill="#a80036" points="327.5,103.37 323.5,112.37 327.5,108.37 331.5,112.37 327.5,103.37" /><!--link 3,0,1 to 3,0,2--><path id="3,0,1-3,0,2" style="stroke: #a80036; stroke-width: 1;" fill="none" d="M 95.5 478.37 C 95.5 505.84 95.5 561.97 95.5 609.5 C 95.5 609.5 95.5 609.5 95.5 1061.5 C 95.5 1106.99 107.996 1159.08 115.986 1187.74" /><polygon style="stroke: #a80036; stroke-width: 1;" fill="#a80036" points="117.422,1192.81 118.821,1183.06 116.061,1188 111.123,1185.24 117.422,1192.81" /><!--link 4,0,0 to 5,0,0--><path id="4,0,0-5,0,0" style="stroke: #a80036; stroke-width: 1;" fill="none" d="M 156.099 403.06 C 154.846 413.26 154.664 426.45 155.554 437.51" /><polygon style="stroke: #a80036; stroke-width: 1;" fill="#a80036" points="156.076,442.75 159.156,433.395 155.576,437.775 151.196,434.195 156.076,442.75" /><!--link 5,0,0 to 4,0,0--><path id="5,0,0-4,0,0" style="stroke: #a80036; stroke-width: 1;" fill="none" d="M 168.924 442.75 C 170.163 432.52 170.332 419.32 169.43 408.29" /><polygon style="stroke: #a80036; stroke-width: 1;" fill="#a80036" points="168.901,403.06 165.848,412.424 169.415,408.034 173.805,411.601 168.901,403.06" /><!--link 2,0,2 to 2,0,3--><path id="2,0,2-2,0,3" style="stroke: #a80036; stroke-width: 1;" fill="none" d="M 144.777 1303.06 C 143.086 1313.35 140.894 1326.69 139.065 1337.81" /><polygon style="stroke: #a80036; stroke-width: 1;" fill="#a80036" points="138.254,1342.75 143.661,1334.52 139.065,1337.81 135.767,1333.22 138.254,1342.75" /><!--link 2,0,2 to 1,0,2--><path id="2,0,2-1,0,2" style="stroke: #a80036; stroke-width: 1;" fill="none" d="M 159.98 1303.06 C 167.94 1313.63 178.323 1327.41 186.835 1338.71" /><polygon style="stroke: #a80036; stroke-width: 1;" fill="#a80036" points="189.879,1342.75 187.659,1333.15 186.871,1338.75 181.269,1337.97 189.879,1342.75" /><!--link 1,0,3 to 0,0,3--><path id="1,0,3-0,0,3" style="stroke: #a80036; stroke-width: 1;" fill="none" d="M 136.5 1453.06 C 136.5 1463.26 136.5 1476.45 136.5 1487.51" /><polygon style="stroke: #a80036; stroke-width: 1;" fill="#a80036" points="136.5,1492.75 140.5,1483.75 136.5,1487.75 132.5,1483.75 136.5,1492.75" /><!--link 0,0,2 to 0,0,1--><path id="0,0,2-0,0,1" style="stroke: #a80036; stroke-width: 1;" fill="none" d="M 214.285 1603.29 C 221.677 1614.03 230.32 1628.6 234.5 1643 C 248.136 1689.98 224.556 1706.11 238.5 1753 C 242.269 1765.67 249.558 1778.41 256.423 1788.58" /><polygon style="stroke: #a80036; stroke-width: 1;" fill="#a80036" points="259.328,1792.77 257.49,1783.09 256.48,1788.66 250.914,1787.65 259.328,1792.77" /><!--link 0,1,3 to 0,1,4--><path id="0,1,3-0,1,4" style="stroke: #a80036; stroke-width: 1;" fill="none" d="M 133.099 1753.06 C 131.846 1763.26 131.664 1776.45 132.554 1787.51" /><polygon style="stroke: #a80036; stroke-width: 1;" fill="#a80036" points="133.076,1792.75 136.164,1783.4 132.58,1787.77 128.204,1784.19 133.076,1792.75" /><!--link 0,1,4 to 0,1,3--><path id="0,1,4-0,1,3" style="stroke: #a80036; stroke-width: 1;" fill="none" d="M 145.924 1792.75 C 147.163 1782.52 147.332 1769.32 146.43 1758.29" /><polygon style="stroke: #a80036; stroke-width: 1;" fill="#a80036" points="145.901,1753.06 142.829,1762.42 146.405,1758.04 150.788,1761.62 145.901,1753.06" /><!--link 0,1,3 to 0,0,3--><path id="0,1,3-0,0,3" style="stroke: #a80036; stroke-width: 1;" fill="none" d="M 143.457 1717.85 C 147.172 1678.15 145.993 1577.94 141.484 1533.41" /><polygon style="stroke: #a80036; stroke-width: 1;" fill="#a80036" points="140.918,1528.26 137.927,1537.64 141.465,1533.23 145.879,1536.77 140.918,1528.26" /><!--link 0,0,3 to 0,1,3--><path id="0,0,3-0,1,3" style="stroke: #a80036; stroke-width: 1;" fill="none" d="M 132.533 1528.26 C 128.827 1568.07 130.013 1668.29 134.528 1712.71" /><polygon style="stroke: #a80036; stroke-width: 1;" fill="#a80036" points="135.095,1717.85 138.083,1708.46 134.546,1712.88 130.132,1709.34 135.095,1717.85" /><!--link 3,0,2 to 3,0,3--><path id="3,0,2-3,0,3" style="stroke: #a80036; stroke-width: 1;" fill="none" d="M 108.658 1228.06 C 99.8296 1238.63 88.315 1252.41 78.8739 1263.71" /><polygon style="stroke: #a80036; stroke-width: 1;" fill="#a80036" points="75.4982,1267.75 84.3384,1263.41 78.7041,1263.91 78.1993,1258.28 75.4982,1267.75" /><!--link 3,0,2 to 2,0,2--><path id="3,0,2-2,0,2" style="stroke: #a80036; stroke-width: 1;" fill="none" d="M 128.173 1228.06 C 131.696 1238.35 136.263 1251.69 140.072 1262.81" /><polygon style="stroke: #a80036; stroke-width: 1;" fill="#a80036" points="141.763,1267.75 142.632,1257.94 140.143,1263.02 135.063,1260.53 141.763,1267.75" /><!--link 5,0,0 to 6,0,0--><path id="5,0,0-6,0,0" style="stroke: #a80036; stroke-width: 1;" fill="none" d="M 153.376 478.06 C 150.447 488.26 148.098 501.45 147.168 512.51" /><polygon style="stroke: #a80036; stroke-width: 1;" fill="#a80036" points="146.83,517.75 151.388,509.019 147.144,512.76 143.404,508.516 146.83,517.75" /><!--link 6,0,0 to 5,0,0--><path id="6,0,0-5,0,0" style="stroke: #a80036; stroke-width: 1;" fill="none" d="M 159.677 517.75 C 162.599 507.52 164.936 494.32 165.848 483.29" /><polygon style="stroke: #a80036; stroke-width: 1;" fill="#a80036" points="166.178,478.06 161.595,486.778 165.85,483.049 169.578,487.303 166.178,478.06" /><!--link 2,0,3 to 1,0,3--><path id="2,0,3-1,0,3" style="stroke: #a80036; stroke-width: 1;" fill="none" d="M 135.727 1378.06 C 135.867 1388.26 136.047 1401.45 136.199 1412.51" /><polygon style="stroke: #a80036; stroke-width: 1;" fill="#a80036" points="136.271,1417.75 140.145,1408.69 136.201,1412.75 132.145,1408.8 136.271,1417.75" /><!--link 0,0,3 to 0,0,2--><path id="0,0,3-0,0,2" style="stroke: #a80036; stroke-width: 1;" fill="none" d="M 151.25 1528.06 C 160.739 1538.72 173.142 1552.65 183.251 1564.01" /><polygon style="stroke: #a80036; stroke-width: 1;" fill="#a80036" points="186.584,1567.75 183.585,1558.37 183.259,1564.01 177.611,1563.69 186.584,1567.75" /><!--link 0,1,4 to 0,0,4--><path id="0,1,4-0,0,4" style="stroke: #a80036; stroke-width: 1;" fill="none" d="M 126.745 1828.06 C 121.535 1838.35 116.247 1851.69 112.897 1862.81" /><polygon style="stroke: #a80036; stroke-width: 1;" fill="#a80036" points="111.502,1867.75 117.799,1860.18 112.862,1862.94 110.101,1858 111.502,1867.75" /><!--link 0,0,4 to 0,1,4--><path id="0,0,4-0,1,4" style="stroke: #a80036; stroke-width: 1;" fill="none" d="M 124.349 1867.75 C 129.56 1857.42 134.837 1844.08 138.163 1832.99" /><polygon style="stroke: #a80036; stroke-width: 1;" fill="#a80036" points="139.547,1828.06 133.261,1835.65 138.194,1832.88 140.962,1837.81 139.547,1828.06" /><!--link 3,0,3 to 3,0,4--><path id="3,0,3-3,0,4" style="stroke: #a80036; stroke-width: 1;" fill="none" d="M 60.3654 1303.06 C 59.6672 1313.26 58.7639 1326.45 58.0062 1337.51" /><polygon style="stroke: #a80036; stroke-width: 1;" fill="#a80036" points="57.6474,1342.75 62.2526,1334.04 57.9888,1337.76 54.2713,1333.5 57.6474,1342.75" /><!--link 6,0,0 to 7,0,0--><path id="6,0,0-7,0,0" style="stroke: #a80036; stroke-width: 1;" fill="none" d="M 144.099 553.06 C 142.846 563.26 142.664 576.45 143.554 587.51" /><polygon style="stroke: #a80036; stroke-width: 1;" fill="#a80036" points="144.076,592.75 147.156,583.395 143.576,587.775 139.196,584.195 144.076,592.75" /><!--link 7,0,0 to 6,0,0--><path id="7,0,0-6,0,0" style="stroke: #a80036; stroke-width: 1;" fill="none" d="M 156.924 592.75 C 158.163 582.52 158.332 569.32 157.43 558.29" /><polygon style="stroke: #a80036; stroke-width: 1;" fill="#a80036" points="156.901,553.06 153.848,562.424 157.415,558.034 161.805,561.601 156.901,553.06" /><!--link 0,0,4 to 0,0,3--><path id="0,0,4-0,0,3" style="stroke: #a80036; stroke-width: 1;" fill="none" d="M 106.422 1867.81 C 98.6003 1840.59 84.5 1784.82 84.5 1736.5 C 84.5 1659.5 84.5 1659.5 84.5 1659.5 C 84.5 1612.13 108.505 1560.81 123.896 1532.77" /><polygon style="stroke: #a80036; stroke-width: 1;" fill="#a80036" points="126.474,1528.14 118.599,1534.06 124.04,1532.51 125.587,1537.95 126.474,1528.14" /><!--link 3,0,4 to 2,0,4--><path id="3,0,4-2,0,4" style="stroke: #a80036; stroke-width: 1;" fill="none" d="M 53.0963 1378.06 C 50.9825 1388.35 48.2424 1401.69 45.9566 1412.81" /><polygon style="stroke: #a80036; stroke-width: 1;" fill="#a80036" points="44.9422,1417.75 50.673,1409.74 45.9493,1412.85 42.837,1408.13 44.9422,1417.75" /><!--link 7,0,0 to 8,0,0--><path id="7,0,0-8,0,0" style="stroke: #a80036; stroke-width: 1;" fill="none" d="M 144.099 628.06 C 142.846 638.26 142.664 651.45 143.554 662.51" /><polygon style="stroke: #a80036; stroke-width: 1;" fill="#a80036" points="144.076,667.75 147.156,658.395 143.576,662.775 139.196,659.195 144.076,667.75" /><!--link 8,0,0 to 7,0,0--><path id="8,0,0-7,0,0" style="stroke: #a80036; stroke-width: 1;" fill="none" d="M 156.924 667.75 C 158.163 657.52 158.332 644.32 157.43 633.29" /><polygon style="stroke: #a80036; stroke-width: 1;" fill="#a80036" points="156.901,628.06 153.848,637.424 157.415,633.034 161.805,636.601 156.901,628.06" /><!--link 2,0,4 to 2,0,5--><path id="2,0,4-2,0,5" style="stroke: #a80036; stroke-width: 1;" fill="none" d="M 39.6847 1453.06 C 38.5675 1463.26 37.1223 1476.45 35.9099 1487.51" /><polygon style="stroke: #a80036; stroke-width: 1;" fill="#a80036" points="35.3358,1492.75 40.2917,1484.24 35.8801,1487.78 32.3393,1483.37 35.3358,1492.75" /><!--link 8,0,0 to 8,0,1--><path id="8,0,0-8,0,1" style="stroke: #a80036; stroke-width: 1;" fill="none" d="M 150.5 703.06 C 150.5 713.26 150.5 726.45 150.5 737.51" /><polygon style="stroke: #a80036; stroke-width: 1;" fill="#a80036" points="150.5,742.75 154.5,733.75 150.5,737.75 146.5,733.75 150.5,742.75" /><!--link 2,0,5 to 1,0,5--><path id="2,0,5-1,0,5" style="stroke: #a80036; stroke-width: 1;" fill="none" d="M 32.5923 1528.06 C 32.0337 1538.26 31.3111 1551.45 30.7049 1562.51" /><polygon style="stroke: #a80036; stroke-width: 1;" fill="#a80036" points="30.4179,1567.75 34.9031,1558.98 30.6908,1562.76 26.915,1558.54 30.4179,1567.75" /><!--link 8,0,1 to 7,0,1--><path id="8,0,1-7,0,1" style="stroke: #a80036; stroke-width: 1;" fill="none" d="M 150.5 778.06 C 150.5 788.26 150.5 801.45 150.5 812.51" /><polygon style="stroke: #a80036; stroke-width: 1;" fill="#a80036" points="150.5,817.75 154.5,808.75 150.5,812.75 146.5,808.75 150.5,817.75" /><!--link 1,0,5 to 0,0,5--><path id="1,0,5-0,0,5" style="stroke: #a80036; stroke-width: 1;" fill="none" d="M 29.5 1603.06 C 29.5 1613.26 29.5 1626.45 29.5 1637.51" /><polygon style="stroke: #a80036; stroke-width: 1;" fill="#a80036" points="29.5,1642.75 33.5,1633.75 29.5,1637.75 25.5,1633.75 29.5,1642.75" /><!--link 7,0,1 to 7,0,2--><path id="7,0,1-7,0,2" style="stroke: #a80036; stroke-width: 1;" fill="none" d="M 150.5 853.06 C 150.5 863.26 150.5 876.45 150.5 887.51" /><polygon style="stroke: #a80036; stroke-width: 1;" fill="#a80036" points="150.5,892.75 154.5,883.75 150.5,887.75 146.5,883.75 150.5,892.75" /><!--link 0,0,5 to 0,0,4--><path id="0,0,5-0,0,4" style="stroke: #a80036; stroke-width: 1;" fill="none" d="M 31.0916 1678.33 C 34.517 1709.27 44.3308 1776.7 68.5 1828 C 74.6225 1840.99 84.081 1853.87 92.5697 1864.03" /><polygon style="stroke: #a80036; stroke-width: 1;" fill="#a80036" points="95.8889,1867.93 93.1022,1858.49 92.6484,1864.13 87.0098,1863.67 95.8889,1867.93" /><!--link 7,0,2 to 6,0,2--><path id="7,0,2-6,0,2" style="stroke: #a80036; stroke-width: 1;" fill="none" d="M 150.5 928.065 C 150.5 938.259 150.5 951.447 150.5 962.51" /><polygon style="stroke: #a80036; stroke-width: 1;" fill="#a80036" points="150.5,967.748 154.5,958.748 150.5,962.748 146.5,958.748 150.5,967.748" /><!--link 6,0,2 to 5,0,2--><path id="6,0,2-5,0,2" style="stroke: #a80036; stroke-width: 1;" fill="none" d="M 150.5 1003.07 C 150.5 1013.26 150.5 1026.45 150.5 1037.51" /><polygon style="stroke: #a80036; stroke-width: 1;" fill="#a80036" points="150.5,1042.75 154.5,1033.75 150.5,1037.75 146.5,1033.75 150.5,1042.75" /><!--link 5,0,2 to 4,0,2--><path id="5,0,2-4,0,2" style="stroke: #a80036; stroke-width: 1;" fill="none" d="M 150.5 1078.06 C 150.5 1088.26 150.5 1101.45 150.5 1112.51" /><polygon style="stroke: #a80036; stroke-width: 1;" fill="#a80036" points="150.5,1117.75 154.5,1108.75 150.5,1112.75 146.5,1108.75 150.5,1117.75" /><!--link 4,0,2 to 3,0,2--><path id="4,0,2-3,0,2" style="stroke: #a80036; stroke-width: 1;" fill="none" d="M 144.146 1153.06 C 140.201 1163.35 135.086 1176.69 130.819 1187.81" /><polygon style="stroke: #a80036; stroke-width: 1;" fill="#a80036" points="128.925,1192.75 135.882,1185.78 130.715,1188.08 128.412,1182.91 128.925,1192.75" /><!--
@startuml
(*) - -> "0,0,0"
"0,0,0" - -> "1,0,0"
"0,0,0" - -> "0,1,0"
"1,0,0" - -> "2,0,0"
"1,0,0" - -> "1,0,1"
"1,0,0" - -> "0,0,0"
"0,1,0" - -> "0,1,1"
"0,1,0" - -> "0,0,0"
"2,0,0" - -> "3,0,0"
"2,0,0" - -> "2,0,1"
"2,0,0" - -> "1,0,0"
"1,0,1" - -> "1,0,2"
"0,1,1" - -> "0,1,2"
"0,1,1" - -> "0,1,0"
"0,1,1" - -> "0,0,1"
"3,0,0" - -> "3,0,1"
"3,0,0" - -> "4,0,0"
"3,0,0" - -> "2,0,0"
"2,0,1" - -> "2,0,2"
"1,0,2" - -> "1,0,3"
"1,0,2" - -> "0,0,2"
"0,1,2" - -> "0,1,3"
"0,1,2" - -> "0,1,1"
"0,1,2" - -> "0,0,2"
"0,0,1" - -> "0,1,1"
"0,0,1" - -> "0,0,0"
"3,0,1" - -> "3,0,2"
"4,0,0" - -> "5,0,0"
"4,0,0" - -> "3,0,0"
"2,0,2" - -> "2,0,3"
"2,0,2" - -> "1,0,2"
"1,0,3" - -> "0,0,3"
"0,0,2" - -> "0,1,2"
"0,0,2" - -> "0,0,1"
"0,1,3" - -> "0,1,4"
"0,1,3" - -> "0,1,2"
"0,1,3" - -> "0,0,3"
"3,0,2" - -> "3,0,3"
"3,0,2" - -> "2,0,2"
"5,0,0" - -> "6,0,0"
"5,0,0" - -> "4,0,0"
"2,0,3" - -> "1,0,3"
"0,0,3" - -> "0,1,3"
"0,0,3" - -> "0,0,2"
"0,1,4" - -> "0,1,3"
"0,1,4" - -> "0,0,4"
"3,0,3" - -> "3,0,4"
"6,0,0" - -> "7,0,0"
"6,0,0" - -> "5,0,0"
"0,0,4" - -> "0,1,4"
"0,0,4" - -> "0,0,3"
"3,0,4" - -> "2,0,4"
"7,0,0" - -> "6,0,0"
"7,0,0" - -> "8,0,0"
"2,0,4" - -> "2,0,5"
"8,0,0" - -> "7,0,0"
"8,0,0" - -> "8,0,1"
"2,0,5" - -> "1,0,5"
"8,0,1" - -> "7,0,1"
"1,0,5" - -> "0,0,5"
"7,0,1" - -> "7,0,2"
"0,0,5" - -> "0,0,4"
"7,0,2" - -> "6,0,2"
"6,0,2" - -> "5,0,2"
"5,0,2" - -> "4,0,2"
"4,0,2" - -> "3,0,2"
@enduml

PlantUML version 1.2019.00(Sun Jan 13 10:46:42 EST 2019)
(EPL source distribution)
Java Runtime: Java(TM) SE Runtime Environment
JVM: Java HotSpot(TM) 64-Bit Server VM
Java Version: 1.8.0_131-b11
Operating System: Windows 10
OS Version: 10.0
Default Encoding: Cp1252
Language: en
Country: US
--></g></svg>